<svg width="179" height="185" viewBox="0 0 179 185" fill="none" xmlns="http://www.w3.org/2000/svg">
<g filter="url(#filter0_d_6_20)">
<rect y="16" width="178" height="162" rx="18" fill="#D9D9D9"/>
<path d="M0 30C0 22.268 6.26801 16 14 16H164C171.732 16 178 22.268 178 30V64H0V30Z" fill="#33424E"/>
<path d="M69.9284 50H62.9674V30.3636H69.9859C71.961 30.3636 73.6613 30.7567 75.0867 31.543C76.5122 32.3228 77.6084 33.4446 78.3754 34.9084C79.1489 36.3722 79.5356 38.1236 79.5356 40.1626C79.5356 42.2081 79.1489 43.9659 78.3754 45.4361C77.6084 46.9062 76.5058 48.0344 75.0676 48.8207C73.6357 49.6069 71.9227 50 69.9284 50ZM67.1191 46.4428H69.7558C70.983 46.4428 72.0154 46.2255 72.8527 45.7908C73.6965 45.3498 74.3293 44.669 74.7512 43.7486C75.1794 42.8217 75.3936 41.6264 75.3936 40.1626C75.3936 38.7116 75.1794 37.5259 74.7512 36.6055C74.3293 35.685 73.6997 35.0075 72.8623 34.5728C72.0249 34.1381 70.9926 33.9208 69.7654 33.9208H67.1191V46.4428ZM82.611 50V30.3636H95.8425V33.7866H86.7626V38.4656H95.1618V41.8885H86.7626V46.5771H95.8809V50H82.611ZM116.469 37.2383H112.269C112.193 36.695 112.036 36.2124 111.799 35.7905C111.563 35.3622 111.259 34.9979 110.889 34.6974C110.518 34.397 110.09 34.1669 109.604 34.0071C109.124 33.8473 108.603 33.7674 108.041 33.7674C107.025 33.7674 106.139 34.0199 105.385 34.5249C104.631 35.0234 104.046 35.7521 103.63 36.7109C103.215 37.6634 103.007 38.8203 103.007 40.1818C103.007 41.5817 103.215 42.7578 103.63 43.7102C104.052 44.6626 104.64 45.3817 105.395 45.8675C106.149 46.3533 107.021 46.5962 108.012 46.5962C108.568 46.5962 109.083 46.5227 109.556 46.3757C110.035 46.2287 110.46 46.0146 110.831 45.7333C111.202 45.4457 111.509 45.0973 111.752 44.6882C112.001 44.2791 112.173 43.8125 112.269 43.2884L116.469 43.3075C116.36 44.2088 116.089 45.0781 115.654 45.9155C115.226 46.7464 114.647 47.4911 113.918 48.1495C113.196 48.8015 112.333 49.3192 111.33 49.7028C110.332 50.0799 109.204 50.2685 107.945 50.2685C106.194 50.2685 104.628 49.8722 103.247 49.0795C101.873 48.2869 100.786 47.1396 99.9869 45.6374C99.1943 44.1353 98.798 42.3168 98.798 40.1818C98.798 38.0405 99.2007 36.2188 100.006 34.7166C100.812 33.2145 101.905 32.0703 103.285 31.2841C104.666 30.4915 106.219 30.0952 107.945 30.0952C109.083 30.0952 110.138 30.255 111.109 30.5746C112.087 30.8942 112.953 31.3608 113.707 31.9744C114.462 32.5817 115.075 33.3263 115.548 34.2085C116.028 35.0906 116.335 36.1005 116.469 37.2383Z" fill="white"/>
<rect x="28" width="21" height="40" rx="10.5" fill="#D02A2A"/>
<rect x="130" width="21" height="40" rx="10.5" fill="#D02A2A"/>
</g>
<defs>
<filter id="filter0_d_6_20" x="0" y="0" width="179" height="185" filterUnits="userSpaceOnUse" color-interpolation-filters="sRGB">
<feFlood flood-opacity="0" result="BackgroundImageFix"/>
<feColorMatrix in="SourceAlpha" type="matrix" values="0 0 0 0 0 0 0 0 0 0 0 0 0 0 0 0 0 0 127 0" result="hardAlpha"/>
<feOffset dx="1" dy="7"/>
<feComposite in2="hardAlpha" operator="out"/>
<feColorMatrix type="matrix" values="0 0 0 0 0 0 0 0 0 0 0 0 0 0 0 0 0 0 0.31 0"/>
<feBlend mode="normal" in2="BackgroundImageFix" result="effect1_dropShadow_6_20"/>
<feBlend mode="normal" in="SourceGraphic" in2="effect1_dropShadow_6_20" result="shape"/>
</filter>
</defs>
</svg>
