<?xml version="1.0" encoding="UTF-8"?>
<svg width="125.11mm" height="120.08mm" version="1.1" viewBox="0 0 125.11 120.08" xmlns="http://www.w3.org/2000/svg" xmlns:cc="http://creativecommons.org/ns#" xmlns:dc="http://purl.org/dc/elements/1.1/" xmlns:rdf="http://www.w3.org/1999/02/22-rdf-syntax-ns#">
 <defs>
  <filter id="filter1347" x="-.034149" y="-.039692" width="1.0683" height="1.0794" color-interpolation-filters="sRGB">
   <feGaussianBlur stdDeviation="1.7129829"/>
  </filter>
 </defs>
 <metadata>
  <rdf:RDF>
   <cc:Work rdf:about="">
    <dc:format>image/svg+xml</dc:format>
    <dc:type rdf:resource="http://purl.org/dc/dcmitype/StillImage"/>
    <dc:title/>
   </cc:Work>
  </rdf:RDF>
 </metadata>
 <g transform="translate(192.83 -62.533)">
  <g transform="translate(-237.03 -23.439)">
   <path transform="matrix(.96009 0 0 .91471 7.3756 17.948)" d="m53.273 99.28h103.84c4.5835 0 8.2734 3.6899 8.2734 8.2734v87.029c0 4.5834-3.6899 8.2734-8.2734 8.2734h-103.84c-4.5835 0-8.2734-3.6899-8.2734-8.2734v-87.029c0-4.5834 3.6899-8.2734 8.2734-8.2734z" fill-opacity=".99608" fill-rule="evenodd" filter="url(#filter1347)" opacity=".45549" stroke-width=".29264"/>
   <path d="m53.195 99.28h103.61c4.5399 0 8.1947 3.6549 8.1947 8.1947v86.202c0 4.5399-3.6548 8.1947-8.1947 8.1947h-103.61c-4.5399 0-8.1947-3.6549-8.1947-8.1947v-86.202c0-4.5399 3.6549-8.1947 8.1947-8.1947z" fill="#ccc" fill-rule="evenodd" stroke-width=".29077"/>
   <g>
    <g fill-rule="evenodd">
     <path d="m53.214 99.28h103.57c4.5506 0 8.2141 3.6635 8.2141 8.2141v20.376c0 4.5506-3.6635 8.2141-8.2141 8.2141h-103.57c-4.5506 0-8.2141-3.6635-8.2141-8.2141v-20.376c0-4.5506 3.6635-8.2141 8.2141-8.2141z" fill="#33424e" stroke-width=".27639"/>
     <path d="m45 114.22h120v21.861h-120z" fill="#33424e" stroke-width=".27646"/>
     <path transform="translate(-8.6369)" d="m73.688 87.179h1.5476c4.3562 0 7.8631 3.507 7.8631 7.8631v17.254c0 4.3562-3.507 7.8631-7.8631 7.8631h-1.5476c-4.3562 0-7.8631-3.507-7.8631-7.8631v-17.254c0-4.3562 3.507-7.8631 7.8631-7.8631zm79.898 0h-1.5476c-4.3562 0-7.8631 3.507-7.8631 7.8631v17.254c0 4.3562 3.507 7.8631 7.8631 7.8631h1.5476c4.3562 0 7.8631-3.507 7.8631-7.8631v-17.254c0-4.3562-3.507-7.8631-7.8631-7.8631z" fill="#d02a2c" stroke-width=".26458"/>
    </g>
    <g transform="scale(.92736 1.0783)" fill="#f9f9f9" opacity=".999" stroke-width=".24536" aria-label="DEC">
     <path d="m99.757 106.3v6.9852h1.0581q1.8096 0 2.7603-0.89711 0.95844-0.8971 0.95844-2.607 0-1.7022-0.95078-2.5916-0.95077-0.88944-2.768-0.88944zm-2.952-2.2313h3.113q2.607 0 3.8798 0.37571 1.2805 0.36804 2.1929 1.2575 0.8051 0.77443 1.1962 1.7866 0.39104 1.0121 0.39104 2.2926 0 1.2958-0.39104 2.3156-0.39105 1.0121-1.1962 1.7866-0.9201 0.88944-2.2083 1.2652-1.2882 0.36804-3.8645 0.36804h-3.113z"/>
     <path d="m109.84 104.07h7.9666v2.2313h-5.0146v2.1316h4.7156v2.2313h-4.7156v2.6223h5.1833v2.2313h-8.1353z"/>
     <path d="m129.65 114.89q-0.81276 0.42172-1.6945 0.63641t-1.8402 0.21469q-2.86 0-4.5315-1.5948-1.6715-1.6025-1.6715-4.3398 0-2.745 1.6715-4.3398 1.6715-1.6025 4.5315-1.6025 0.95845 0 1.8402 0.2147 0.88177 0.21469 1.6945 0.63641v2.3693q-0.82043-0.55974-1.6179-0.82043-0.79742-0.2607-1.6792-0.2607-1.5795 0-2.4843 1.0121t-0.90477 2.791q0 1.7712 0.90477 2.7833t2.4843 1.0121q0.88177 0 1.6792-0.2607 0.79743-0.2607 1.6179-0.82043z"/>
    </g>
   </g>
  </g>
 </g>
</svg>
