<svg width="166" height="150" viewBox="0 0 166 150" fill="none" xmlns="http://www.w3.org/2000/svg">
<g clip-path="url(#clip0_18_523)">
<path d="M134.995 57.924C134.995 57.924 131.891 53.0514 131.891 48.6736C131.891 45.5013 133.403 42.0021 133.403 42.0021C133.833 41.0066 133.505 39.5737 132.674 38.8172L102.899 11.7C102.068 10.9436 100.709 10.9436 99.8791 11.7L52.9886 54.404L97.7318 94.5182L134.556 60.9815C135.387 60.225 135.584 58.849 134.995 57.924Z" fill="#754C24"/>
<path d="M132.49 38.6493L128.911 35.3897L114.69 48.3325L104.075 38.6651L118.296 25.7226L114.717 22.4631L100.495 35.4056L87.1727 23.272L83.5936 26.5315L96.9155 38.664L85.6923 48.8777L72.3741 36.7488L68.7953 40.0084L82.1123 52.1364L66.4045 66.4315L70.0115 69.6656L85.691 55.396L96.3063 65.0634L80.71 79.2571L84.3173 82.4909L99.8853 68.3226L113.19 80.4398L116.769 77.1803L103.465 65.0642L114.688 54.8505L127.988 66.9627L131.567 63.7031L118.269 51.5921L132.49 38.6493ZM99.8863 61.8047L89.271 52.1373L100.494 41.9235L111.109 51.5909L99.8863 61.8047Z" fill="#512C0E"/>
<path opacity="0.1" d="M58.4919 59.3379L106.849 15.2974L102.899 11.6997C102.068 10.9433 100.71 10.9433 99.8794 11.6997L52.9886 54.404L58.4919 59.3379Z" fill="black"/>
<path d="M51.5706 141.959C49.9093 143.472 47.1923 143.472 45.531 141.959L1.24597 101.628C-0.415324 100.115 -0.415324 97.6398 1.24597 96.1269L48.8267 52.7936C50.488 51.281 53.2062 51.281 54.8679 52.7936L99.1516 93.1248C100.813 94.6377 100.813 97.1133 99.1516 98.6262L51.5706 141.959Z" fill="#B8C49C"/>
<path d="M34.8681 111.338C34.3778 110.891 34.0938 110.292 34.0792 109.675L33.5307 86.9347C33.4512 83.722 34.751 80.729 37.1904 78.5074C39.6292 76.2861 42.9158 75.1028 46.4433 75.1737C49.9728 75.2458 53.3206 76.5647 55.8722 78.8892C58.4229 81.2121 59.8708 84.2604 59.9499 87.4746L59.9749 88.473L61.0704 88.4947C64.5992 88.5671 67.9471 89.886 70.4978 92.2093C73.0484 94.5328 74.4983 97.5823 74.5771 100.796C74.6546 104.009 73.3557 107.002 70.9166 109.223C68.4779 111.445 65.1913 112.628 61.6634 112.557L36.6941 112.056C36.0155 112.042 35.3599 111.785 34.8681 111.338Z" fill="#E84731"/>
<path opacity="0.1" d="M12.1663 101.628C10.505 100.115 10.505 97.6398 12.1663 96.1269L57.3073 55.0154L54.8679 52.7936C53.2066 51.281 50.4883 51.281 48.8267 52.7936L1.24597 96.1269C-0.415324 97.6398 -0.415324 100.115 1.24597 101.628L45.531 141.959C47.1923 143.472 49.9093 143.472 51.5706 141.959L54.0106 139.737L12.1663 101.628Z" fill="black"/>
<path opacity="0.1" d="M44.4507 90.111C44.3723 86.8984 45.6717 83.9054 48.1111 81.6838C50.0808 79.8891 52.6055 78.7732 55.3623 78.4474C52.8823 76.3986 49.7426 75.2411 46.4437 75.174C42.9165 75.1031 39.6299 76.2861 37.1908 78.5077C34.7514 80.7293 33.4516 83.7223 33.531 86.935L34.0796 109.675C34.0942 110.293 34.3782 110.891 34.8684 111.339C35.3599 111.785 36.0158 112.043 36.6948 112.056L44.9844 112.223L44.4507 90.111Z" fill="black"/>
<path d="M151.92 15.716C152.75 16.4722 152.75 17.7097 151.92 18.4664L142.869 26.7085C142.039 27.465 140.68 27.465 139.849 26.7085L130.799 18.4664C129.969 17.7097 129.969 16.4722 130.799 15.716L139.849 7.47365C140.68 6.7172 142.039 6.7172 142.869 7.47365L151.92 15.716Z" fill="#736357"/>
<path d="M151.92 15.716C152.75 16.4722 152.75 17.7097 151.92 18.4664L142.869 26.7085C142.039 27.465 140.68 27.465 139.849 26.7085L130.799 18.4664C129.969 17.7097 129.969 16.4722 130.799 15.716L139.849 7.47365C140.68 6.7172 142.039 6.7172 142.869 7.47365L151.92 15.716Z" fill="#603813"/>
<path d="M153.451 75.5601C154.282 76.3166 154.282 77.5541 153.451 78.3105L147.507 83.7243C146.676 84.481 145.317 84.481 144.487 83.7243L138.542 78.3105C137.711 77.5541 137.711 76.3166 138.542 75.5601L144.487 70.1461C145.317 69.3896 146.676 69.3896 147.507 70.1461L153.451 75.5601Z" fill="#736357"/>
<path d="M153.451 75.5601C154.282 76.3166 154.282 77.5541 153.451 78.3105L147.507 83.7243C146.676 84.481 145.317 84.481 144.487 83.7243L138.542 78.3105C137.711 77.5541 137.711 76.3166 138.542 75.5601L144.487 70.1461C145.317 69.3896 146.676 69.3896 147.507 70.1461L153.451 75.5601Z" fill="#603813"/>
<path d="M165.377 45.1901C166.208 45.9466 166.208 47.1841 165.377 47.9405L159.432 53.3543C158.602 54.111 157.243 54.111 156.413 53.3543L150.468 47.9405C149.637 47.1841 149.637 45.9466 150.468 45.1901L156.413 39.7761C157.243 39.0196 158.602 39.0196 159.432 39.7761L165.377 45.1901Z" fill="#736357"/>
<path d="M165.377 45.1901C166.208 45.9466 166.208 47.1841 165.377 47.9405L159.432 53.3543C158.602 54.111 157.243 54.111 156.413 53.3543L150.468 47.9405C149.637 47.1841 149.637 45.9466 150.468 45.1901L156.413 39.7761C157.243 39.0196 158.602 39.0196 159.432 39.7761L165.377 45.1901Z" fill="#754C24"/>
</g>
<defs>
<clipPath id="clip0_18_523">
<rect width="166" height="150" fill="white"/>
</clipPath>
</defs>
</svg>
