<?xml version="1.0" encoding="UTF-8" standalone="no"?>
<!DOCTYPE svg PUBLIC "-//W3C//DTD SVG 1.1//EN" "http://www.w3.org/Graphics/SVG/1.1/DTD/svg11.dtd">
<svg width="100%" height="100%" viewBox="0 0 150 80" version="1.1" xmlns="http://www.w3.org/2000/svg" xmlns:xlink="http://www.w3.org/1999/xlink" xml:space="preserve" xmlns:serif="http://www.serif.com/" style="fill-rule:evenodd;clip-rule:evenodd;stroke-linejoin:round;stroke-miterlimit:2;">
    <g transform="matrix(1,0,0,1,-16.8805,-79.1235)">
        <g id="Plan-de-travail1" serif:id="Plan de travail1" transform="matrix(1,0,0,1,-240.268,-115.101)">
            <rect x="240.268" y="115.101" width="190.604" height="247.651" style="fill:none;"/>
            <g transform="matrix(1,0,0,0.8,0,38.8448)">
                <g transform="matrix(1,0,0,1,240.268,115.101)">
                    <path d="M117.593,104.413L166.881,104.413L166.881,175.388C164.121,175.388 161.881,177.062 161.881,179.123L120.881,179.123C120.881,176.66 119.452,174.61 117.574,174.199L117.574,171.352C117.574,171.076 117.35,170.852 117.074,170.852C116.798,170.852 116.574,171.076 116.574,171.352L116.574,174.138C114.509,174.334 112.881,176.493 112.881,179.123L21.881,179.123C21.881,177.062 19.64,175.388 16.881,175.388L16.881,104.413L116.593,104.413L116.593,106.374C116.593,106.65 116.817,106.874 117.093,106.874C117.368,106.874 117.593,106.65 117.593,106.374L117.593,104.413ZM117.574,161.324C117.574,161.048 117.35,160.824 117.074,160.824C116.798,160.824 116.574,161.048 116.574,161.324L116.574,166.3C116.574,166.576 116.798,166.8 117.074,166.8C117.35,166.8 117.574,166.576 117.574,166.3L117.574,161.324ZM117.574,151.38C117.574,151.104 117.35,150.88 117.074,150.88C116.798,150.88 116.574,151.104 116.574,151.38L116.574,156.356C116.574,156.632 116.798,156.856 117.074,156.856C117.35,156.856 117.574,156.632 117.574,156.356L117.574,151.38ZM117.574,141.288C117.574,141.013 117.35,140.788 117.074,140.788C116.798,140.788 116.574,141.013 116.574,141.288L116.574,146.265C116.574,146.541 116.798,146.765 117.074,146.765C117.35,146.765 117.574,146.541 117.574,146.265L117.574,141.288ZM117.574,131.323C117.574,131.048 117.35,130.823 117.074,130.823C116.798,130.823 116.574,131.048 116.574,131.323L116.574,136.3C116.574,136.576 116.798,136.8 117.074,136.8C117.35,136.8 117.574,136.576 117.574,136.3L117.574,131.323ZM117.574,121.337C117.574,121.061 117.35,120.837 117.074,120.837C116.798,120.837 116.574,121.061 116.574,121.337L116.574,126.314C116.574,126.59 116.798,126.814 117.074,126.814C117.35,126.814 117.574,126.59 117.574,126.314L117.574,121.337ZM117.574,111.32C117.574,111.044 117.35,110.82 117.074,110.82C116.798,110.82 116.574,111.044 116.574,111.32L116.574,116.297C116.574,116.572 116.798,116.797 117.074,116.797C117.35,116.797 117.574,116.572 117.574,116.297L117.574,111.32Z" style="fill:rgb(211,211,211);"/>
                </g>
                <g transform="matrix(1,0,0,1,240.268,115.101)">
                    <path d="M116.611,104.413L16.881,104.413L16.881,84.123C19.64,84.123 21.881,81.883 21.881,79.123L112.881,79.123C112.881,81.754 114.509,83.913 116.574,84.109L116.574,86.302C116.574,86.578 116.798,86.802 117.074,86.802C117.35,86.802 117.574,86.578 117.574,86.302L117.574,84.048C119.452,83.637 120.881,81.587 120.881,79.123L161.881,79.123C161.881,81.883 164.121,84.123 166.881,84.123L166.881,104.413L117.611,104.413L117.611,104.413L117.611,101.251C117.611,100.975 117.387,100.751 117.111,100.751C116.835,100.751 116.611,100.975 116.611,101.251L116.611,104.413L116.611,104.413ZM117.593,91.289C117.593,91.013 117.368,90.789 117.093,90.789C116.817,90.789 116.593,91.013 116.593,91.289L116.593,96.265C116.593,96.541 116.817,96.765 117.093,96.765C117.368,96.765 117.593,96.541 117.593,96.265L117.593,91.289Z" style="fill:rgb(255,99,99);"/>
                </g>
            </g>
        </g>
    </g>
</svg>