<svg xmlns="http://www.w3.org/2000/svg" width="596.2157" height="334" style=""><rect id="backgroundrect" width="100%" height="100%" x="0" y="0" fill="none" stroke="none"/>
  
<g class="currentLayer" style=""><title>Layer 1</title><g id="katman_2" data-name="katman 2" class="selected" fill="#ffffff" fill-opacity="1">
    <g id="katman_1-2" data-name="katman 1" fill="#ffffff" fill-opacity="1">
      <path d="M579.915,54.5c7.4-8.4,13-17.8,15.4-28.9a32.0016,32.0016,0,0,0,.8-9.8c-1.9,5.3-5.9,8.7-10.8,11.1-5,2.4-10.2,4.5-15.3,6.7a65.0475,65.0475,0,0,1-6.2,2.2,6.602,6.602,0,0,1-1.4-.1,4.9574,4.9574,0,0,1,.3-1.3c1-1.7,2.1-3.4,3.2-5,5.5-8.2,9.9-16.8,12-26.6a26.9825,26.9825,0,0,0,.4-2.8c-.5.2-.6.5-.9.7a71.6168,71.6168,0,0,1-5.7,6.5c-4.3,3.9-9.5,6.6-14.8,9.1-9.9,4.6-20.2,8.1-30.6,11.6-16,5.4-31.4,12.1-46.8,19-10.6,4.7-21.3,9.2-30.9,15.9a4.6711,4.6711,0,0,1-1,.5c-.8.3-1.2.1-1.2-.8a3.4052,3.4052,0,0,1,.1-1c1.2-5.3,2.4-10.5,3.6-15.8.6-2.6,1.1-5.1,1.7-8.1-2,1.1-3.7,1.9-5.3,2.9-5.9,3.4-11.4,7.2-15.8,12.5-2.9,3.4-4.7,7.5-6.3,11.6a34.932,34.932,0,0,1-13.6,16.3,169.5117,169.5117,0,0,1-46.4,21.7,75.3354,75.3354,0,0,1-10.5,2.2c-2.4.4-3.3-.6-3.7-3a50.6572,50.6572,0,0,1,1.2-22.9c.6-2.1,1.3-4.2,2-6.5a5.7682,5.7682,0,0,0-1.4.3c-1.8.8-3.6,1.5-5.3,2.3-2.7,1.2-5.2,2.8-8,3.7a57.2833,57.2833,0,0,1-24,2,172.5869,172.5869,0,0,0-35.2.2,52.965,52.965,0,0,1-18.6-1.1c-4.4-1.2-8.4-3.3-12.4-5.3-1.7-.9-3.5-1.5-5.6-2.4.3,1.2.5,1.9.7,2.6,3.4,8.7,3.9,17.7,2.5,26.9-.4,2.6-.8,3-3.5,3.1h-1.3c-3.7-.8-7.4-1.3-11-2.4a163.7891,163.7891,0,0,1-39.9-18.3,109.9757,109.9757,0,0,1-11.7-8.6c-3.9-3.3-5.8-8-7.6-12.7a32.3549,32.3549,0,0,0-6.9-11.2c-5.5-5.8-12.2-9.8-19.2-13.5-.1-.1-.2,0-.5-.1.1.5.1.9.2,1.3,1.6,7.1,3.2,14.1,4.7,21.2a12.1875,12.1875,0,0,1,0,2.7,12.0459,12.0459,0,0,1-2.7-.8c-3.7-2.2-7.1-4.8-11-6.6-15.1-6.8-30.2-13.7-45.5-20-12.5-5.1-25.4-9.4-38.1-14.1-7.7-2.9-15.3-6-22.3-10.4-4.5-2.8-8.7-6.1-11.2-10.9-.1-.1-.2-.1-.5-.3.1.7.1,1.3.2,1.8.3,1.3.5,2.6.9,3.9a90.9175,90.9175,0,0,0,13.3,26.6,9.1723,9.1723,0,0,1,1.3,2.1,5.31,5.31,0,0,1,.1,1.8h-1.6a5.6377,5.6377,0,0,1-1.2-.4c-6.6-2.8-13.3-5.5-19.8-8.5a20.83,20.83,0,0,1-9.7-8.4,36.7619,36.7619,0,0,1-1.6-3.4,42.8793,42.8793,0,0,0,1.2,11.4c2.4,10.4,7.8,19.2,14.7,27.1,2.4,2.8,4.9,5.4,7.3,8.2a9.75,9.75,0,0,1,1.2,2.1,8.7937,8.7937,0,0,1-1.4-.2c-3.1-1.1-6.2-2-9.1-3.2-3.2-1.3-6-3.2-7.6-6.5a.774.774,0,0,1-.3-.1v2.1c.4,5.8,2.5,11.1,5.2,16.2a88.647,88.647,0,0,0,35.9,36.4,17.6109,17.6109,0,0,1,2.3,1.4c1.3,1,1.3,2.2-.2,3-4.7,2.5-7.9,6.4-10.4,10.9-1.2,2.1-2.3,4.3-4.7,5.7,5.9,3.6,11.6,7,17.3,10.5a44.4557,44.4557,0,0,0,15.3,5.8c1.4.3,2.8.6,4.2,1,1.9.6,2,1.5.6,2.8l-1.5,1.2a15.3847,15.3847,0,0,0-5.6,6.5c-1.7,3.6-3.4,7.3-5.1,11,.4.1,1,.3,1.6.5a41.2717,41.2717,0,0,1,5,1.5c3.2,1.4,6.3,2.9,9.4,4.4a30.3958,30.3958,0,0,0,17.5,3c3.7-.5,7.4-1.3,11.1-1.9a24.3187,24.3187,0,0,1,2.7,0,12.6107,12.6107,0,0,1-.5,2.8c-1.3,3.2-2.2,6.5-1.6,10,.5,3.1,2.4,5.9,1.8,9.3,1.8-2.1,3.9-1.8,6.1-1.1a7.8378,7.8378,0,0,1,1.4.5,14.9149,14.9149,0,0,0,10.6.5c2.1-.7,2.8-.1,3.6,1.9s1.6,4,2.5,6a8.5755,8.5755,0,0,1,.8,5.2c0,.4-.1.7-.2,1.5,2.5-2.3,5.1-1.5,7.7-.9a22.9115,22.9115,0,0,0,2.8.7,16.2517,16.2517,0,0,0,3.8.1,3.0638,3.0638,0,0,1,3.1,1.3,38.7588,38.7588,0,0,0,2.6,3.1c1.8,2,4.3,3.5,3.9,6.9,1.7-1.9,3.6-1.4,5.7-1.1a18.5884,18.5884,0,0,0,4.7.1,3.1845,3.1845,0,0,1,3.2,1.1c1,1.1,2,2.1,3.1,3.1,2,1.7,3.8,3.4,4.5,6.1a.774.774,0,0,1,.3.1c.6-1.6,1.9-1.8,3.4-1.7a15.4383,15.4383,0,0,1,3,.4,8.6774,8.6774,0,0,0,8.2-1.5,2.1266,2.1266,0,0,1,3.1.2,12.5739,12.5739,0,0,0,5.9,3.4,12.6609,12.6609,0,0,1,6.4,4.1,5.4176,5.4176,0,0,1,.6-1.1c1.2-2.4,2.9-3.2,5.5-2.9.9.1,1.8.3,2.7.4,3,.4,5.5-.1,7.1-3a3.1139,3.1139,0,0,1,.7-.9,3.8589,3.8589,0,0,1,2-.6c2.8.5,5.6,1.1,8.5,1.6.7-3.2,3.1-5.1,5.3-7.2a5.7163,5.7163,0,0,1,.8-.7,13.3516,13.3516,0,0,0,3.6-6.3,26.5606,26.5606,0,0,0,0-11.9c-1.2-6-2.7-11.9-4.1-17.8-1.4-5.6-2.9-11.1-3.1-17a15.0052,15.0052,0,0,1,1.7-8.3,5.3961,5.3961,0,0,1,6.7-2.4,2.1791,2.1791,0,0,1,1.6,2.3c-.1,3.8-.2,7.6,0,11.4.1,3.5.5,7.1.9,10.6.8,6.9,3.1,13.4,5.7,19.8a50.8269,50.8269,0,0,1,3.2,27.5c-1.2,8.2-5.1,15.1-10.5,21.3-4.4,5.1-9.1,9.9-13.5,14.9-4.2,4.7-8.3,9.5-11.1,15.3-1.6,3.3-2,6.6-.5,10,.8,1.7,1.4,3.6.6,5.2,1.6.8,3.1,1.6,4.6,2.3a11.2412,11.2412,0,0,0,3.9,1,2.4237,2.4237,0,0,1,2.5,1.2c1,2,2.7,3.4,4.4,4.9,2.3,1.9,4.7,3.8,4.1,7.7,2.8-2.5,5.8-1.6,8.7-1.4a33.7875,33.7875,0,0,0,4.5,0c1.7-.1,2.4.1,3,1.7a8.4639,8.4639,0,0,0,3.1,3.9,50.3059,50.3059,0,0,1,4.3,3.5c1.5,1.4,1.5,2.5.5,4.3,3.2-1.5,6.3-.5,9.4.4a7.4665,7.4665,0,0,0,7.4-1.7c1.8-1.5,2.4-1.3,4.3,0a24.0625,24.0625,0,0,0,4.2,2.2,31.7775,31.7775,0,0,0,3.3.9,6.7073,6.7073,0,0,1,4.7,4.1c0,.1.2.2.4.4.7-2.9,2.8-4,5.2-4.7.5-.1.9-.3,1.4-.4a11.197,11.197,0,0,0,6.4-3.2,1.8782,1.8782,0,0,1,2.6-.2,14.7176,14.7176,0,0,1,1.3,1,7.0527,7.0527,0,0,0,6.8,1.5,21.0449,21.0449,0,0,1,2.4-.6c2.4-.5,4.8-.9,7.1.3.1.1.3,0,.6,0-1.6-1.9-1.7-2.8,0-4.6a17.5539,17.5539,0,0,1,3-2.4,11.2188,11.2188,0,0,0,4.5-4.9,2.6782,2.6782,0,0,1,2.8-1.6,44.3061,44.3061,0,0,0,6.3-.3c2.4-.3,4.8-.4,6.8,1.3a.9962.9962,0,0,0,.4-.1c-.7-3,.9-4.9,3-6.6a18.1024,18.1024,0,0,0,2.1-1.8,26.1334,26.1334,0,0,0,2.7-3,4.8865,4.8865,0,0,1,3.8-2.2,24.1822,24.1822,0,0,0,3.6-1c1.5-.6,2.8-1.4,4.4-2.2-.6-2,.1-4,.9-6a10.8766,10.8766,0,0,0-.5-9c-2.6-5.4-6.3-9.9-10.3-14.3-5-5.5-10.2-10.9-15-16.6-9-10.8-12.7-23.1-10-37.2a114.3884,114.3884,0,0,1,5.4-17.2,66.0887,66.0887,0,0,0,4.3-21.9c.1-4.3,0-8.7.1-13,0-2.8,1.6-4,4.3-3.5,2.9.5,4.3,2.5,5,5.2a22.4052,22.4052,0,0,1,.1,10.3c-1.2,6.5-2.6,12.9-4.1,19.3-1.3,5.4-2.7,10.7-3.1,16.3-.4,5.7,1,10.6,5.7,14.3,2.2,1.7,4,3.7,4.6,6.5a68.6122,68.6122,0,0,0,6.8-1.2c2.1-.5,3.7-.2,4.9,1.8a4.8966,4.8966,0,0,0,4.7,2.4c1.1,0,2.2-.1,3.2-.2,1,0,1.9-.1,2.9-.1,2.4.2,3.7,1.7,4.5,3.9a12.203,12.203,0,0,1,5.8-4,16.8536,16.8536,0,0,0,6.6-3.5,2.2666,2.2666,0,0,1,3.3-.1,7.6931,7.6931,0,0,0,5.9,1.5c1.2-.1,2.5-.3,3.7-.4,1.9-.2,3.9-.6,4.7,1.4a46.1549,46.1549,0,0,1,3.7-5c1.2-1.4,2.8-2.6,4.1-3.9a3.6541,3.6541,0,0,1,3.1-1.1,47.3147,47.3147,0,0,0,5.3-.1c1.8-.2,3.6-.5,5,1,.1.1.2,0,.5,0-.6-2.3.8-3.8,2.2-5.3,1.4-1.4,2.7-2.8,4-4.3a3.76,3.76,0,0,1,3.2-1.6,24.6872,24.6872,0,0,0,5.4-.5c3-.7,5.9-1.9,9.1.6-1.2-3.4,0-5.9,1.3-8.5a27.397,27.397,0,0,0,1.5-4c.6-1.9,1.6-2.7,3.6-2.1a15.2438,15.2438,0,0,0,11.3-.7c2.3-1,4.5-1.1,6.6.5h.1a18.511,18.511,0,0,1,.8-4.6c2.1-5.8,1.9-11.2-1.6-16.3-.3-.4-.4-1.3-.2-1.4a2.6178,2.6178,0,0,1,1.7-.5c1.6.3,3.3.9,4.9,1.3a43.1627,43.1627,0,0,0,17.5,1.2,34.8418,34.8418,0,0,0,10.9-4,46.88,46.88,0,0,1,12.4-4.8c.4-.1.8-.3,1.1-.4-.8-1.5-1.6-2.9-2.3-4.3-.8-1.8-1.5-3.6-2.3-5.4a17.5254,17.5254,0,0,0-6.6-8.1,8.7808,8.7808,0,0,1-1.5-1.2c-1-.9-1-1.7.3-2.2a26.4283,26.4283,0,0,1,4-1.2,44.4429,44.4429,0,0,0,14.1-4.8c6.4-3.7,12.7-7.6,19.1-11.4.1-.1.1-.2.1-.1-1-1.2-2-2.3-2.9-3.6-1.3-1.9-2.5-3.9-3.7-5.8a19.2066,19.2066,0,0,0-8-7.2c-.3-.2-.7-.4-1-.6-.7-.7-.9-1.4-.1-2.1a11.8654,11.8654,0,0,1,2.3-1.6,87.3975,87.3975,0,0,0,31.5-28.3c4.4-6.5,8-13.4,9.6-21.2a57.3328,57.3328,0,0,0,.7-5.8h-.4c-2.5,4.9-12.5,10.4-17.7,9.7a23.2065,23.2065,0,0,1,1.4-2.3C575.8149,58.9,577.915,56.7,579.915,54.5Z" id="svg_1" fill="#ffffff" fill-opacity="1"/>
    </g>
  </g></g></svg>