<svg width="163" height="183" viewBox="0 0 163 183" fill="none" xmlns="http://www.w3.org/2000/svg">
<path d="M99.8125 159.785H92.5625C90.5687 159.785 88.9375 161.681 88.9375 164.004V182.781C88.9375 185.102 90.5687 187 92.5625 187H99.8125V159.785Z" fill="#C56C4D"/>
<path d="M103.438 159.785H98V187H103.438C105.431 187 107.062 185.102 107.062 182.781V164.004C107.062 161.681 105.431 159.785 103.438 159.785Z" fill="#B36345"/>
<path d="M139.093 157.469L125.187 130.047H127C127.013 130.049 127.027 130.047 127.036 130.047C129.039 130.047 130.661 128.157 130.661 125.828C130.661 124.765 130.324 123.797 129.769 123.056L112.5 94.1875H116.125C116.138 94.1875 116.152 94.1875 116.161 94.1875C118.164 94.1875 119.786 92.2975 119.786 89.9688C119.786 88.952 119.476 88.0155 118.96 87.2877L101.074 53.9807C100.411 52.7488 99.2488 52 98 52C96.7512 52 95.5894 52.7488 94.926 53.9807L76.801 87.7307C76.1032 89.0322 76.0669 90.6733 76.7049 92.0127C77.3429 93.3522 78.5555 94.1875 79.875 94.1875H83.5L65.984 123.489C65.2427 124.782 65.1738 126.446 65.8027 127.819C66.4353 129.19 67.6642 130.047 69 130.047H70.8125L56.907 157.469C56.1766 158.764 56.1131 160.422 56.7475 161.787C57.3801 163.149 58.6053 163.797 59.9375 163.797H136.062C137.395 163.797 138.62 163.149 139.252 161.787C139.885 160.422 139.823 158.764 139.093 157.469Z" fill="#84BD5A"/>
<path d="M98 52C99.2488 52 100.411 52.7488 101.074 53.9807L119.199 87.7307C119.897 89.0322 119.933 90.6733 119.295 92.0127C118.657 93.3522 117.444 94.1875 116.125 94.1875H112.5L130.016 123.489C130.757 124.782 130.826 126.446 130.197 127.819C129.565 129.19 128.336 130.047 127 130.047H125.188L139.093 157.469C139.823 158.764 139.887 160.422 139.252 161.787C138.62 163.149 137.395 163.797 136.062 163.797H116.125L110.688 134.266V130.047L103.438 98.4062V94.1875L98 52Z" fill="#73AE44"/>
<path d="M98 52C96.7512 52 95.5894 52.7488 94.926 53.9807L76.801 87.7307C76.1032 89.0322 76.0669 90.6733 76.7049 92.0127C77.3429 93.3522 78.5555 94.1875 79.875 94.1875H83.5L65.984 123.489C65.2427 124.782 65.1738 126.446 65.8027 127.819C66.4353 129.19 67.6642 130.047 69 130.047H70.8125L56.907 157.469C56.1766 158.764 56.1131 160.422 56.7475 161.787C57.3801 163.149 58.6053 163.797 59.9375 163.797H79.875L85.3125 134.266V130.047L92.5625 98.4062V94.1875L98 52Z" fill="#90C660"/>
<path d="M103.438 98.4062H115.023L112.5 94.1875H103.438V98.4062Z" fill="#6FA14E"/>
<path d="M110.688 134.266H127.524L125.187 130.047H110.688V134.266Z" fill="#6FA14E"/>
<path d="M103.438 98.4062H80.977L83.5 94.1875H103.438V98.4062Z" fill="#73AE44"/>
<path d="M110.688 134.266H68.4762L70.8125 130.047H110.688V134.266Z" fill="#73AE44"/>
<path d="M98 163.797H88.9375V168.016H98V163.797Z" fill="#B86548"/>
<path d="M107.062 163.797H98V168.016H107.062V163.797Z" fill="#A2593E"/>
<path d="M92.5625 98.4062H80.977L83.5 94.1875H92.5625V98.4062Z" fill="#84BD5A"/>
<path d="M85.3125 134.266H68.4762L70.8125 130.047H85.3125V134.266Z" fill="#84BD5A"/>
<path d="M142.701 156.033L145.022 159.992L162.161 150.252L159.84 146.293L142.701 156.033Z" fill="#B29A7E"/>
<path d="M102.562 152.455L115.57 159.85L117.892 155.891L104.884 148.496L102.562 152.455Z" fill="#B29A7E"/>
<path d="M130.528 184C140.785 184 149.099 175.813 149.099 165.714C149.099 155.615 140.785 147.428 130.528 147.428C120.271 147.428 111.956 155.615 111.956 165.714C111.956 175.813 120.271 184 130.528 184Z" fill="#E8F4FC"/>
<path d="M130.528 147.429C135.229 147.429 139.04 143.676 139.04 139.048C139.04 134.419 135.229 130.667 130.528 130.667C125.827 130.667 122.016 134.419 122.016 139.048C122.016 143.676 125.827 147.429 130.528 147.429Z" fill="#E8F4FC"/>
<path d="M130.527 147.429V184C140.784 184 149.099 175.813 149.099 165.714C149.099 155.615 140.784 147.429 130.527 147.429Z" fill="#D1E5F5"/>
<path d="M139.04 139.048C139.04 134.419 135.229 130.667 130.528 130.667V147.429C135.229 147.429 139.04 143.676 139.04 139.048Z" fill="#D1E5F5"/>
<path d="M136.718 128.381V120H124.337V128.381H121.242V132.952H139.813V128.381H136.718Z" fill="#797781"/>
<path d="M130.527 174.095H130.527C128.821 174.095 127.432 172.728 127.432 171.048C127.432 169.367 128.821 168 130.527 168C132.234 168 133.622 169.367 133.623 171.047C133.622 172.728 132.233 174.095 130.527 174.095Z" fill="#E59278"/>
<path d="M130.527 163.428H130.527C128.821 163.428 127.432 162.061 127.432 160.381C127.432 158.7 128.821 157.333 130.527 157.333C132.234 157.333 133.622 158.7 133.623 160.38C133.622 162.062 132.233 163.428 130.527 163.428Z" fill="#E59278"/>
<path d="M139.813 128.381H136.718V120H130.527V132.952H139.813V128.381Z" fill="#58575D"/>
<path d="M37.4688 149.302H27.5938C24.8781 149.302 22.6562 151.929 22.6562 155.146V181.156C22.6562 184.37 24.8781 187 27.5938 187H37.4688V149.302Z" fill="#C56C4D"/>
<path d="M42.4062 149.302H35V187H42.4062C45.1219 187 47.3438 184.37 47.3438 181.156V155.146C47.3438 151.929 45.1219 149.302 42.4062 149.302Z" fill="#B36345"/>
<path d="M90.9715 146.094L72.0312 111.031H74.5C74.5173 111.034 74.537 111.031 74.5494 111.031C77.2773 111.031 79.4869 108.413 79.4869 105.188C79.4869 103.715 79.0277 102.374 78.2722 101.348L54.75 64.2812H59.6875C59.7048 64.2812 59.7245 64.2812 59.7369 64.2812C62.4648 64.2812 64.6744 61.6632 64.6744 58.4375C64.6744 57.0292 64.2522 55.7318 63.5486 54.7238L39.187 17.353C38.2834 15.6466 36.701 14.6094 35 14.6094C33.299 14.6094 31.7166 15.6466 30.813 17.353L6.12549 55.3374C5.17503 57.1402 5.12565 59.4134 5.99465 61.2688C6.86365 63.1242 8.51524 64.2812 10.3125 64.2812H15.25L-8.60801 101.947C-9.61772 103.738 -9.71154 106.044 -8.85488 107.946C-7.99329 109.845 -6.31948 111.031 -4.50001 111.031H-2.03126L-20.9715 146.094C-21.9664 147.888 -22.0528 150.184 -21.1888 152.075C-20.3272 153.962 -18.6583 154.859 -16.8438 154.859H86.8437C88.6583 154.859 90.3271 153.962 91.1887 152.075C92.0503 150.184 91.9664 147.888 90.9715 146.094Z" fill="#84BD5A"/>
<path d="M35 14.6094C36.701 14.6094 38.2834 15.6466 39.187 17.353L63.8745 55.3374C64.825 57.1402 64.8743 59.4134 64.0053 61.2688C63.1363 63.1242 61.4847 64.2812 59.6875 64.2812H54.75L78.608 101.947C79.6177 103.738 79.7115 106.044 78.8549 107.946C77.9933 109.845 76.3195 111.031 74.5 111.031H72.0312L90.9715 146.094C91.9664 147.888 92.0528 150.184 91.1887 152.075C90.3272 153.962 88.6583 154.859 86.8438 154.859H59.6875L52.2812 116.875V111.031L42.4062 70.125V64.2812L35 14.6094Z" fill="#73AE44"/>
<path d="M35 14.6094C33.299 14.6094 31.7166 15.6466 30.813 17.353L6.1255 55.3374C5.17503 57.1402 5.12565 59.4134 5.99465 61.2688C6.86365 63.1242 8.51524 64.2812 10.3125 64.2812H15.25L-8.608 101.947C-9.61772 103.738 -9.71154 106.044 -8.85488 107.946C-7.99329 109.845 -6.31947 111.031 -4.50001 111.031H-2.03126L-20.9715 146.094C-21.9664 147.888 -22.0528 150.184 -21.1888 152.075C-20.3272 153.962 -18.6583 154.859 -16.8438 154.859H10.3125L17.7187 116.875V111.031L27.5937 70.125V64.2812L35 14.6094Z" fill="#90C660"/>
<path d="M42.4062 70.125H58.1865L54.75 64.2812H42.4062V70.125Z" fill="#6FA14E"/>
<path d="M52.2812 116.875H75.2135L72.0312 111.031H52.2812V116.875Z" fill="#6FA14E"/>
<path d="M42.4063 70.125H11.8135L15.25 64.2812H42.4063V70.125Z" fill="#73AE44"/>
<path d="M52.2813 116.875H-5.21347L-2.03125 111.031H52.2813V116.875Z" fill="#73AE44"/>
<path d="M35 154.859H22.6562V160.703H35V154.859Z" fill="#B86548"/>
<path d="M47.3438 154.859H35V160.703H47.3438V154.859Z" fill="#A2593E"/>
<path d="M27.5938 70.125H11.8135L15.25 64.2812H27.5938V70.125Z" fill="#84BD5A"/>
<path d="M17.7187 116.875H-5.21347L-2.03125 111.031H17.7187V116.875Z" fill="#84BD5A"/>
<path d="M0.4375 143.172C3.16441 143.172 5.375 140.556 5.375 137.328C5.375 134.101 3.16441 131.484 0.4375 131.484C-2.28941 131.484 -4.5 134.101 -4.5 137.328C-4.5 140.556 -2.28941 143.172 0.4375 143.172Z" fill="#FCD063"/>
<path d="M30.0625 134.406C32.7894 134.406 35 131.79 35 128.562C35 125.335 32.7894 122.719 30.0625 122.719C27.3356 122.719 25.125 125.335 25.125 128.562C25.125 131.79 27.3356 134.406 30.0625 134.406Z" fill="#F15642"/>
<path d="M62.1562 140.25C64.8832 140.25 67.0938 137.634 67.0938 134.406C67.0938 131.179 64.8832 128.562 62.1562 128.562C59.4293 128.562 57.2188 131.179 57.2188 134.406C57.2188 137.634 59.4293 140.25 62.1562 140.25Z" fill="#FCD063"/>
<path d="M37.4688 105.188C40.1957 105.188 42.4062 102.571 42.4062 99.3438C42.4062 96.1163 40.1957 93.5 37.4688 93.5C34.7418 93.5 32.5312 96.1163 32.5312 99.3438C32.5312 102.571 34.7418 105.188 37.4688 105.188Z" fill="#FCD063"/>
<path d="M15.25 93.5C17.9769 93.5 20.1875 90.8837 20.1875 87.6562C20.1875 84.4288 17.9769 81.8125 15.25 81.8125C12.5231 81.8125 10.3125 84.4288 10.3125 87.6562C10.3125 90.8837 12.5231 93.5 15.25 93.5Z" fill="#F15642"/>
<path d="M52.2812 90.5781C55.0082 90.5781 57.2188 87.9618 57.2188 84.7344C57.2188 81.507 55.0082 78.8906 52.2812 78.8906C49.5543 78.8906 47.3438 81.507 47.3438 84.7344C47.3438 87.9618 49.5543 90.5781 52.2812 90.5781Z" fill="#009ED1"/>
<path d="M27.5938 49.6719C30.3207 49.6719 32.5312 47.0555 32.5312 43.8281C32.5312 40.6007 30.3207 37.9844 27.5938 37.9844C24.8668 37.9844 22.6562 40.6007 22.6562 43.8281C22.6562 47.0555 24.8668 49.6719 27.5938 49.6719Z" fill="#009ED1"/>
<path d="M42.4062 55.5156C45.1332 55.5156 47.3438 52.8993 47.3438 49.6719C47.3438 46.4445 45.1332 43.8281 42.4062 43.8281C39.6793 43.8281 37.4688 46.4445 37.4688 49.6719C37.4688 52.8993 39.6793 55.5156 42.4062 55.5156Z" fill="#F15642"/>
<path d="M42.1495 29.2187C42.0285 29.2187 41.9026 29.1778 41.7891 29.1106L34.9951 24.3509L28.2011 29.1106C27.9419 29.283 27.6283 29.2538 27.3864 29.0376C27.1519 28.8243 27.0309 28.462 27.0852 28.1026L28.3788 18.7175L22.8834 12.079C22.6735 11.8219 22.5995 11.4391 22.6884 11.0973C22.7797 10.7496 23.0216 10.4925 23.3105 10.4399L30.9068 9.0695L34.3038 0.531781C34.4347 0.207453 34.7038 0 34.9975 0C35.2889 0 35.558 0.207453 35.6863 0.531781L39.0883 9.0695L46.6821 10.4399C46.971 10.4925 47.2154 10.7467 47.3043 11.0973C47.3956 11.4391 47.3166 11.8219 47.1068 12.079L41.6113 18.7175L42.905 28.1026C42.9568 28.462 42.8408 28.8243 42.6038 29.0376C42.4655 29.1574 42.31 29.2187 42.1495 29.2187Z" fill="#F15642"/>
<g clip-path="url(#clip0_18_3190)">
<path d="M6.04688 166.453H-0.140625C-1.84219 166.453 -3.23438 167.746 -3.23438 169.328V182.125C-3.23438 183.706 -1.84219 185 -0.140625 185H6.04688V166.453Z" fill="#C56C4D"/>
<path d="M9.14062 166.453H4.5V185H9.14062C10.8422 185 12.2344 183.706 12.2344 182.125V169.328C12.2344 167.746 10.8422 166.453 9.14062 166.453Z" fill="#B36345"/>
<path d="M39.5708 164.875L27.7031 146.188H29.25C29.2608 146.189 29.2732 146.188 29.2809 146.188C30.9902 146.188 32.3747 144.899 32.3747 143.312C32.3747 142.588 32.087 141.928 31.6136 141.424L16.875 121.75H19.9688C19.9796 121.75 19.992 121.75 19.9997 121.75C21.709 121.75 23.0934 120.462 23.0934 118.875C23.0934 118.182 22.8289 117.544 22.3881 117.048L7.1235 94.3498C6.55734 93.5103 5.5658 93 4.5 93C3.4342 93 2.44266 93.5103 1.8765 94.3498L-13.5922 117.35C-14.1878 118.237 -14.2187 119.355 -13.6742 120.268C-13.1297 121.181 -12.0949 121.75 -10.9687 121.75H-7.875L-22.824 141.718C-23.4567 142.599 -23.5155 143.734 -22.9787 144.67C-22.4388 145.604 -21.39 146.188 -20.25 146.188H-18.7031L-30.5707 164.875C-31.1941 165.758 -31.2483 166.888 -30.7069 167.818C-30.167 168.746 -29.1213 169.188 -27.9844 169.188H36.9844C38.1213 169.188 39.167 168.746 39.7069 167.818C40.2467 166.888 40.1941 165.758 39.5708 164.875Z" fill="#84BD5A"/>
<path d="M4.5 93C5.5658 93 6.55734 93.5103 7.1235 94.3498L22.5922 117.35C23.1878 118.237 23.2187 119.355 22.6742 120.268C22.1297 121.181 21.0949 121.75 19.9687 121.75H16.875L31.824 141.718C32.4567 142.599 32.5155 143.734 31.9787 144.67C31.4388 145.604 30.39 146.188 29.25 146.188H27.7031L39.5707 164.875C40.1941 165.758 40.2483 166.888 39.7069 167.818C39.167 168.746 38.1213 169.188 36.9844 169.188H19.9687L15.3281 149.062V146.188L9.14062 124.625V121.75L4.5 93Z" fill="#73AE44"/>
<path d="M4.5 93C3.4342 93 2.44266 93.5103 1.8765 94.3498L-13.5922 117.35C-14.1878 118.237 -14.2187 119.355 -13.6742 120.268C-13.1297 121.181 -12.0949 121.75 -10.9687 121.75H-7.875L-22.824 141.718C-23.4567 142.599 -23.5155 143.734 -22.9787 144.67C-22.4388 145.604 -21.39 146.188 -20.25 146.188H-18.7031L-30.5707 164.875C-31.1941 165.758 -31.2483 166.888 -30.7069 167.818C-30.167 168.746 -29.1213 169.188 -27.9844 169.188H-10.9687L-6.32813 149.062V146.188L-0.140626 124.625V121.75L4.5 93Z" fill="#90C660"/>
<path d="M9.14062 124.625H19.0282L16.875 121.75H9.14062V124.625Z" fill="#6FA14E"/>
<path d="M15.3281 149.062H29.697L27.7031 146.188H15.3281V149.062Z" fill="#6FA14E"/>
<path d="M9.14062 124.625H-10.0283L-7.87501 121.75H9.14062V124.625Z" fill="#73AE44"/>
<path d="M15.3281 149.062H-20.6971L-18.7031 146.188H15.3281V149.062Z" fill="#73AE44"/>
<path d="M4.5 169.188H-3.23438V172.062H4.5V169.188Z" fill="#B86548"/>
<path d="M12.2344 169.188H4.5V172.062H12.2344V169.188Z" fill="#A2593E"/>
<g clip-path="url(#clip1_18_3190)">
<path d="M28.9688 179.953H20.0312V183.672H28.9688V179.953Z" fill="#7EA82D"/>
<path d="M28.9688 179.953H20.0312V180.391H28.9688V179.953Z" fill="#729C22"/>
<path d="M29.4844 178.641H19.5156V179.953H29.4844V178.641Z" fill="#7EA82D"/>
<path d="M25.5312 178.641H23.4688V183.672H25.5312V178.641Z" fill="#DD4A43"/>
<path d="M23.7537 177.691C23.6681 177.582 23.5364 177.49 23.3736 177.426C23.2107 177.362 23.0229 177.328 22.8314 177.328H21.4062C21.1327 177.328 20.8704 177.397 20.677 177.52C20.4836 177.643 20.375 177.81 20.375 177.984C20.375 178.158 20.4836 178.325 20.677 178.448C20.8704 178.571 21.1327 178.641 21.4062 178.641H24.5L23.7537 177.691Z" fill="#DD4A43"/>
<path d="M24.5 178.641H22.7812C22.5077 178.641 22.2454 178.571 22.052 178.448C21.8586 178.325 21.75 178.158 21.75 177.984V177.984C21.75 177.81 21.8586 177.643 22.052 177.52C22.2454 177.397 22.5077 177.328 22.7812 177.328H22.8314C23.0229 177.328 23.2107 177.362 23.3736 177.426C23.5364 177.49 23.6681 177.582 23.7537 177.691L24.5 178.641Z" fill="#B0342E"/>
<path d="M25.2463 177.691C25.3319 177.582 25.4636 177.49 25.6264 177.426C25.7893 177.362 25.9771 177.328 26.1686 177.328H27.5938C27.8673 177.328 28.1296 177.397 28.323 177.52C28.5164 177.643 28.625 177.81 28.625 177.984C28.625 178.158 28.5164 178.325 28.323 178.448C28.1296 178.571 27.8673 178.641 27.5938 178.641H24.5L25.2463 177.691Z" fill="#DD4A43"/>
<path d="M24.5 178.641H26.2188C26.4923 178.641 26.7546 178.571 26.948 178.448C27.1414 178.325 27.25 178.158 27.25 177.984C27.25 177.81 27.1414 177.643 26.948 177.52C26.7546 177.397 26.4923 177.328 26.2188 177.328H26.1686C25.9771 177.328 25.7893 177.362 25.6264 177.426C25.4636 177.49 25.3319 177.582 25.2463 177.691L24.5 178.641Z" fill="#B0342E"/>
<path d="M25.5312 180.938V178.641H23.4688V181.047L24.5 179.406L25.5312 180.938Z" fill="#D13E37"/>
<path d="M22.6094 181.594L21.9219 181.047L20.7188 181.266L22.4375 178.641H24.5L22.6094 181.594Z" fill="#DD4A43"/>
<path d="M26.3906 181.594L27.0781 181.047L28.2812 181.266L26.5625 178.641H24.5L26.3906 181.594Z" fill="#DD4A43"/>
<path d="M22.3625 179.586L21.7564 180.568L22.0763 180.648L22.6824 179.666L22.3625 179.586Z" fill="#E66B65"/>
<path d="M22.6208 179.148L22.4886 179.367L22.8095 179.445L22.9417 179.227L22.6208 179.148Z" fill="#E66B65"/>
<path d="M20.8906 182.359H20.5469V183.344H20.8906V182.359Z" fill="#95C43B"/>
<path d="M20.8906 181.922H20.5469V182.141H20.8906V181.922Z" fill="#95C43B"/>
</g>
</g>
<g clip-path="url(#clip2_18_3190)">
<path d="M73 170.687H69C67.9 170.687 67 171.684 67 172.906V182.781C67 184.002 67.9 185 69 185H73V170.687Z" fill="#C56C4D"/>
<path d="M75 170.687H72V185H75C76.1 185 77 184.002 77 182.781V172.906C77 171.684 76.1 170.687 75 170.687Z" fill="#B36345"/>
<path d="M94.672 169.469L87 155.047H88C88.007 155.048 88.015 155.047 88.02 155.047C89.125 155.047 90.02 154.053 90.02 152.828C90.02 152.269 89.834 151.76 89.528 151.37L80 136.188H82C82.007 136.188 82.015 136.188 82.02 136.188C83.125 136.188 84.02 135.193 84.02 133.969C84.02 133.434 83.849 132.941 83.564 132.559L73.696 115.042C73.33 114.394 72.689 114 72 114C71.311 114 70.67 114.394 70.304 115.042L60.304 132.792C59.919 133.476 59.899 134.339 60.251 135.044C60.603 135.748 61.272 136.188 62 136.188H64L54.336 151.598C53.927 152.278 53.889 153.153 54.236 153.875C54.585 154.596 55.263 155.047 56 155.047H57L49.328 169.469C48.925 170.15 48.89 171.022 49.24 171.74C49.589 172.456 50.265 172.797 51 172.797H93C93.735 172.797 94.411 172.456 94.76 171.74C95.109 171.022 95.075 170.15 94.672 169.469Z" fill="#84BD5A"/>
<path d="M72 114C72.689 114 73.33 114.394 73.696 115.042L83.696 132.792C84.081 133.476 84.101 134.339 83.749 135.044C83.397 135.748 82.728 136.188 82 136.188H80L89.664 151.598C90.073 152.278 90.111 153.153 89.764 153.875C89.415 154.596 88.737 155.047 88 155.047H87L94.672 169.469C95.075 170.15 95.11 171.022 94.76 171.74C94.411 172.456 93.735 172.797 93 172.797H82L79 157.266V155.047L75 138.406V136.188L72 114Z" fill="#73AE44"/>
<path d="M72 114C71.311 114 70.67 114.394 70.304 115.042L60.304 132.792C59.919 133.476 59.899 134.339 60.251 135.044C60.603 135.748 61.272 136.188 62 136.188H64L54.336 151.598C53.927 152.278 53.889 153.153 54.236 153.875C54.585 154.596 55.263 155.047 56 155.047H57L49.328 169.469C48.925 170.15 48.89 171.022 49.24 171.74C49.589 172.456 50.265 172.797 51 172.797H62L65 157.266V155.047L69 138.406V136.188L72 114Z" fill="#90C660"/>
<path d="M75 138.406H81.392L80 136.188H75V138.406Z" fill="#6FA14E"/>
<path d="M79 157.266H88.289L87 155.047H79V157.266Z" fill="#6FA14E"/>
<path d="M75 138.406H62.608L64 136.188H75V138.406Z" fill="#73AE44"/>
<path d="M79 157.266H55.711L57 155.047H79V157.266Z" fill="#73AE44"/>
<path d="M72 172.797H67V175.016H72V172.797Z" fill="#B86548"/>
<path d="M77 172.797H72V175.016H77V172.797Z" fill="#A2593E"/>
<path d="M69 138.406H62.608L64 136.188H69V138.406Z" fill="#84BD5A"/>
<path d="M65 157.266H55.711L57 155.047H65V157.266Z" fill="#84BD5A"/>
<path d="M59.9219 180.536C59.9218 180.388 59.8872 180.242 59.8208 180.11C59.7544 179.978 59.6581 179.863 59.5395 179.775L58.4844 178.991V171.422C58.4844 169.897 57.8786 168.434 56.8002 167.356C55.7219 166.278 54.2594 165.672 52.7344 165.672L54.1719 162.602L53.4531 162.246C53.2297 162.135 52.9837 162.078 52.7344 162.078C52.485 162.078 52.239 162.135 52.0156 162.246V162.246C51.7922 162.357 51.5462 162.415 51.2969 162.415C51.0475 162.415 50.8015 162.357 50.5781 162.246V162.246C50.3547 162.135 50.1087 162.078 49.8594 162.078C49.61 162.078 49.364 162.135 49.1406 162.246L48.4219 162.602L49.8594 165.672C48.3344 165.672 46.8718 166.278 45.7935 167.356C44.7152 168.434 44.1094 169.897 44.1094 171.422V178.969L43.0485 179.773C42.9315 179.862 42.8366 179.977 42.7713 180.109C42.7059 180.24 42.6719 180.385 42.6719 180.532C42.6718 180.657 42.6964 180.781 42.7443 180.897C42.7921 181.012 42.8623 181.117 42.9507 181.206C43.0391 181.294 43.1442 181.364 43.2597 181.412C43.3753 181.46 43.4991 181.484 43.6242 181.484H58.9735C59.225 181.484 59.4662 181.384 59.644 181.206C59.8218 181.029 59.9218 180.787 59.9219 180.536V180.536Z" fill="#DD4A43"/>
<path d="M59.5395 179.775L58.4844 178.991V171.422C58.4846 170.639 58.3245 169.865 58.014 169.147C57.7035 168.429 57.2491 167.781 56.6789 167.246C55.1098 175.367 49.1733 179.544 45.4362 181.484H58.9735C59.1729 181.484 59.3673 181.422 59.5289 181.305C59.6906 181.188 59.8114 181.023 59.8741 180.834C59.9367 180.645 59.9382 180.441 59.8781 180.25C59.818 180.06 59.6996 179.894 59.5395 179.775V179.775Z" fill="#D13E37"/>
<path d="M52.7344 166.031H49.8594C49.7641 166.031 49.6727 165.993 49.6053 165.926C49.5379 165.859 49.5 165.767 49.5 165.672C49.5 165.577 49.5379 165.485 49.6053 165.418C49.6727 165.35 49.7641 165.312 49.8594 165.312H52.7344C52.8297 165.312 52.9211 165.35 52.9885 165.418C53.0559 165.485 53.0938 165.577 53.0938 165.672C53.0938 165.767 53.0559 165.859 52.9885 165.926C52.9211 165.993 52.8297 166.031 52.7344 166.031Z" fill="#7A4321"/>
<path d="M50.8268 169.823L50.7991 169.781C50.3573 169.116 50.1589 168.318 50.2375 167.523C50.3161 166.728 50.6668 165.984 51.2304 165.418C51.2806 165.367 51.3447 165.332 51.4147 165.318C51.4846 165.304 51.5572 165.311 51.6231 165.338C51.6891 165.366 51.7454 165.412 51.785 165.471C51.8246 165.531 51.8455 165.601 51.8453 165.672C51.846 166.263 52.0028 166.844 52.2997 167.356C52.5966 167.868 53.0232 168.292 53.5365 168.586L54.1798 168.954L53.8233 169.578L53.18 169.21C52.6968 168.933 52.2755 168.56 51.9417 168.114C51.608 167.668 51.369 167.159 51.2394 166.617C51.0185 167.051 50.9169 167.536 50.945 168.022C50.973 168.508 51.1297 168.978 51.3989 169.384L51.4273 169.427L50.8268 169.823Z" fill="#7A4321"/>
<path d="M48.4219 177.172V182.922H39.7969V177.172" fill="#7EA82D"/>
<path d="M49.1406 175.016H39.0781V177.172H49.1406V175.016Z" fill="#7EA82D"/>
<path d="M41.9531 172.141L44.1094 175.016H41.5938L40.1562 173.219H41.5938L41.9531 172.141Z" fill="#D13E37"/>
<path d="M46.2656 172.141L44.1094 175.016H46.625L48.0625 173.219H46.625L46.2656 172.141Z" fill="#B5362F"/>
<path d="M48.4219 177.172H39.7969V178.25H48.4219V177.172Z" fill="#729C22"/>
<path d="M45.1875 175.016H43.0312V182.922H45.1875V175.016Z" fill="#DD4A43"/>
<path d="M46.031 170.434L45.3345 170.254C45.5673 169.349 46.0671 168.535 46.7688 167.918L47.2449 168.457C46.6507 168.979 46.2277 169.668 46.031 170.434V170.434Z" fill="#E66B65"/>
<path d="M47.674 168.127L47.2762 167.529C47.5025 167.378 47.7416 167.248 47.9906 167.14L48.2781 167.798C48.0675 167.89 47.8654 168 47.674 168.127V168.127Z" fill="#E66B65"/>
<path d="M41.5938 179.688H40.875V181.844H41.5938V179.688Z" fill="#95C43B"/>
<path d="M41.5938 178.25H40.875V178.969H41.5938V178.25Z" fill="#95C43B"/>
</g>
<defs>
<clipPath id="clip0_18_3190">
<rect width="99" height="92" fill="white" transform="translate(-45 93)"/>
</clipPath>
<clipPath id="clip1_18_3190">
<rect width="11" height="7" fill="white" transform="translate(19 177)"/>
</clipPath>
<clipPath id="clip2_18_3190">
<rect width="64" height="71" fill="white" transform="translate(40 114)"/>
</clipPath>
</defs>
</svg>
