<svg width="148" height="183" viewBox="0 0 148 183" fill="none" xmlns="http://www.w3.org/2000/svg">
<path d="M144.812 159.785H137.562C135.569 159.785 133.938 161.681 133.938 164.004V182.781C133.938 185.102 135.569 187 137.562 187H144.812V159.785Z" fill="#C56C4D"/>
<path d="M148.438 159.785H143V187H148.438C150.431 187 152.062 185.102 152.062 182.781V164.004C152.062 161.681 150.431 159.785 148.438 159.785Z" fill="#B36345"/>
<path d="M184.093 157.469L170.188 130.047H172C172.013 130.049 172.027 130.047 172.036 130.047C174.039 130.047 175.661 128.157 175.661 125.828C175.661 124.765 175.324 123.797 174.77 123.056L157.5 94.1875H161.125C161.138 94.1875 161.152 94.1875 161.161 94.1875C163.164 94.1875 164.786 92.2975 164.786 89.9688C164.786 88.952 164.476 88.0155 163.96 87.2877L146.074 53.9807C145.411 52.7488 144.249 52 143 52C141.751 52 140.589 52.7488 139.926 53.9807L121.801 87.7307C121.103 89.0322 121.067 90.6733 121.705 92.0127C122.343 93.3522 123.556 94.1875 124.875 94.1875H128.5L110.984 123.489C110.243 124.782 110.174 126.446 110.803 127.819C111.435 129.19 112.664 130.047 114 130.047H115.812L101.907 157.469C101.177 158.764 101.113 160.422 101.747 161.787C102.38 163.149 103.605 163.797 104.937 163.797H181.063C182.395 163.797 183.62 163.149 184.253 161.787C184.885 160.422 184.823 158.764 184.093 157.469Z" fill="#84BD5A"/>
<path d="M143 52C144.249 52 145.411 52.7488 146.074 53.9807L164.199 87.7307C164.897 89.0322 164.933 90.6733 164.295 92.0127C163.657 93.3522 162.444 94.1875 161.125 94.1875H157.5L175.016 123.489C175.757 124.782 175.826 126.446 175.197 127.819C174.565 129.19 173.336 130.047 172 130.047H170.188L184.093 157.469C184.823 158.764 184.887 160.422 184.252 161.787C183.62 163.149 182.395 163.797 181.062 163.797H161.125L155.688 134.266V130.047L148.438 98.4062V94.1875L143 52Z" fill="#73AE44"/>
<path d="M143 52C141.751 52 140.589 52.7488 139.926 53.9807L121.801 87.7307C121.103 89.0322 121.067 90.6733 121.705 92.0127C122.343 93.3522 123.556 94.1875 124.875 94.1875H128.5L110.984 123.489C110.243 124.782 110.174 126.446 110.803 127.819C111.435 129.19 112.664 130.047 114 130.047H115.812L101.907 157.469C101.177 158.764 101.113 160.422 101.747 161.787C102.38 163.149 103.605 163.797 104.937 163.797H124.875L130.312 134.266V130.047L137.562 98.4062V94.1875L143 52Z" fill="#90C660"/>
<path d="M148.438 98.4062H125.977L128.5 94.1875H148.438V98.4062Z" fill="#73AE44"/>
<path d="M155.687 134.266H113.476L115.812 130.047H155.687V134.266Z" fill="#73AE44"/>
<path d="M143 163.797H133.938V168.016H143V163.797Z" fill="#B86548"/>
<path d="M152.062 163.797H143V168.016H152.062V163.797Z" fill="#A2593E"/>
<path d="M137.563 98.4062H125.977L128.5 94.1875H137.563V98.4062Z" fill="#84BD5A"/>
<path d="M130.312 134.266H113.476L115.812 130.047H130.312V134.266Z" fill="#84BD5A"/>
<path d="M82.4688 149.302H72.5938C69.8781 149.302 67.6562 151.929 67.6562 155.146V181.156C67.6562 184.37 69.8781 187 72.5938 187H82.4688V149.302Z" fill="#C56C4D"/>
<path d="M87.4062 149.302H80V187H87.4062C90.1219 187 92.3438 184.37 92.3438 181.156V155.146C92.3438 151.929 90.1219 149.302 87.4062 149.302Z" fill="#B36345"/>
<path d="M135.971 146.094L117.031 111.031H119.5C119.517 111.034 119.537 111.031 119.549 111.031C122.277 111.031 124.487 108.413 124.487 105.188C124.487 103.715 124.028 102.374 123.272 101.348L99.75 64.2812H104.688C104.705 64.2812 104.725 64.2812 104.737 64.2812C107.465 64.2812 109.674 61.6632 109.674 58.4375C109.674 57.0292 109.252 55.7318 108.549 54.7238L84.187 17.353C83.2834 15.6466 81.701 14.6094 80 14.6094C78.299 14.6094 76.7166 15.6466 75.813 17.353L51.1255 55.3374C50.175 57.1402 50.1257 59.4134 50.9947 61.2688C51.8637 63.1242 53.5152 64.2812 55.3125 64.2812H60.25L36.392 101.947C35.3823 103.738 35.2885 106.044 36.1451 107.946C37.0067 109.845 38.6805 111.031 40.5 111.031H42.9688L24.0285 146.094C23.0336 147.888 22.9472 150.184 23.8113 152.075C24.6728 153.962 26.3417 154.859 28.1563 154.859H131.844C133.658 154.859 135.327 153.962 136.189 152.075C137.05 150.184 136.966 147.888 135.971 146.094Z" fill="#84BD5A"/>
<path d="M80 14.6094C81.701 14.6094 83.2834 15.6466 84.187 17.353L108.874 55.3374C109.825 57.1402 109.874 59.4134 109.005 61.2688C108.136 63.1242 106.485 64.2812 104.688 64.2812H99.75L123.608 101.947C124.618 103.738 124.712 106.044 123.855 107.946C122.993 109.845 121.319 111.031 119.5 111.031H117.031L135.972 146.094C136.966 147.888 137.053 150.184 136.189 152.075C135.327 153.962 133.658 154.859 131.844 154.859H104.688L97.2812 116.875V111.031L87.4062 70.125V64.2812L80 14.6094Z" fill="#73AE44"/>
<path d="M80 14.6094C78.299 14.6094 76.7166 15.6466 75.813 17.353L51.1255 55.3374C50.175 57.1402 50.1257 59.4134 50.9947 61.2688C51.8637 63.1242 53.5153 64.2812 55.3125 64.2812H60.25L36.392 101.947C35.3823 103.738 35.2885 106.044 36.1451 107.946C37.0067 109.845 38.6805 111.031 40.5 111.031H42.9688L24.0285 146.094C23.0336 147.888 22.9472 150.184 23.8113 152.075C24.6728 153.962 26.3417 154.859 28.1563 154.859H55.3125L62.7188 116.875V111.031L72.5938 70.125V64.2812L80 14.6094Z" fill="#90C660"/>
<path d="M87.4062 70.125H103.186L99.75 64.2812H87.4062V70.125Z" fill="#6FA14E"/>
<path d="M97.2812 116.875H120.213L117.031 111.031H97.2812V116.875Z" fill="#6FA14E"/>
<path d="M87.4063 70.125H56.8135L60.25 64.2812H87.4063V70.125Z" fill="#73AE44"/>
<path d="M97.2813 116.875H39.7865L42.9688 111.031H97.2813V116.875Z" fill="#73AE44"/>
<path d="M80 154.859H67.6562V160.703H80V154.859Z" fill="#B86548"/>
<path d="M92.3438 154.859H80V160.703H92.3438V154.859Z" fill="#A2593E"/>
<path d="M72.5938 70.125H56.8135L60.25 64.2812H72.5938V70.125Z" fill="#84BD5A"/>
<path d="M62.7188 116.875H39.7865L42.9688 111.031H62.7188V116.875Z" fill="#84BD5A"/>
<path d="M45.4375 143.172C48.1644 143.172 50.375 140.556 50.375 137.328C50.375 134.101 48.1644 131.484 45.4375 131.484C42.7106 131.484 40.5 134.101 40.5 137.328C40.5 140.556 42.7106 143.172 45.4375 143.172Z" fill="#FCD063"/>
<path d="M75.0625 134.406C77.7894 134.406 80 131.79 80 128.562C80 125.335 77.7894 122.719 75.0625 122.719C72.3356 122.719 70.125 125.335 70.125 128.562C70.125 131.79 72.3356 134.406 75.0625 134.406Z" fill="#F15642"/>
<path d="M107.156 140.25C109.883 140.25 112.094 137.634 112.094 134.406C112.094 131.179 109.883 128.562 107.156 128.562C104.429 128.562 102.219 131.179 102.219 134.406C102.219 137.634 104.429 140.25 107.156 140.25Z" fill="#FCD063"/>
<path d="M82.4688 105.188C85.1957 105.188 87.4062 102.571 87.4062 99.3438C87.4062 96.1163 85.1957 93.5 82.4688 93.5C79.7418 93.5 77.5312 96.1163 77.5312 99.3438C77.5312 102.571 79.7418 105.188 82.4688 105.188Z" fill="#FCD063"/>
<path d="M60.25 93.5C62.9769 93.5 65.1875 90.8837 65.1875 87.6562C65.1875 84.4288 62.9769 81.8125 60.25 81.8125C57.5231 81.8125 55.3125 84.4288 55.3125 87.6562C55.3125 90.8837 57.5231 93.5 60.25 93.5Z" fill="#F15642"/>
<path d="M97.2812 90.5781C100.008 90.5781 102.219 87.9618 102.219 84.7344C102.219 81.507 100.008 78.8906 97.2812 78.8906C94.5543 78.8906 92.3438 81.507 92.3438 84.7344C92.3438 87.9618 94.5543 90.5781 97.2812 90.5781Z" fill="#009ED1"/>
<path d="M72.5938 49.6719C75.3207 49.6719 77.5312 47.0555 77.5312 43.8281C77.5312 40.6007 75.3207 37.9844 72.5938 37.9844C69.8668 37.9844 67.6562 40.6007 67.6562 43.8281C67.6562 47.0555 69.8668 49.6719 72.5938 49.6719Z" fill="#009ED1"/>
<path d="M87.4062 55.5156C90.1332 55.5156 92.3438 52.8993 92.3438 49.6719C92.3438 46.4445 90.1332 43.8281 87.4062 43.8281C84.6793 43.8281 82.4688 46.4445 82.4688 49.6719C82.4688 52.8993 84.6793 55.5156 87.4062 55.5156Z" fill="#F15642"/>
<path d="M87.1495 29.2187C87.0285 29.2187 86.9026 29.1778 86.7891 29.1106L79.9951 24.3509L73.2011 29.1106C72.9418 29.283 72.6283 29.2538 72.3864 29.0376C72.1518 28.8243 72.0309 28.462 72.0852 28.1026L73.3788 18.7175L67.8834 12.079C67.6735 11.8219 67.5995 11.4391 67.6883 11.0973C67.7797 10.7496 68.0216 10.4925 68.3105 10.4399L75.9068 9.0695L79.3038 0.531781C79.4347 0.207453 79.7038 0 79.9975 0C80.2888 0 80.5579 0.207453 80.6863 0.531781L84.0882 9.0695L91.6821 10.4399C91.971 10.4925 92.2154 10.7467 92.3043 11.0973C92.3956 11.4391 92.3166 11.8219 92.1067 12.079L86.6113 18.7175L87.9049 28.1026C87.9568 28.462 87.8408 28.8243 87.6038 29.0376C87.4655 29.1574 87.31 29.2187 87.1495 29.2187Z" fill="#F15642"/>
<g clip-path="url(#clip0_18_3074)">
<path d="M51.0469 166.453H44.8594C43.1578 166.453 41.7656 167.746 41.7656 169.328V182.125C41.7656 183.706 43.1578 185 44.8594 185H51.0469V166.453Z" fill="#C56C4D"/>
<path d="M54.1406 166.453H49.5V185H54.1406C55.8422 185 57.2344 183.706 57.2344 182.125V169.328C57.2344 167.746 55.8422 166.453 54.1406 166.453Z" fill="#B36345"/>
<path d="M84.5707 164.875L72.7031 146.188H74.25C74.2608 146.189 74.2732 146.188 74.2809 146.188C75.9902 146.188 77.3747 144.9 77.3747 143.312C77.3747 142.588 77.087 141.928 76.6136 141.424L61.875 121.75H64.9688C64.9796 121.75 64.992 121.75 64.9997 121.75C66.709 121.75 68.0934 120.462 68.0934 118.875C68.0934 118.182 67.8289 117.544 67.3881 117.048L52.1235 94.3498C51.5573 93.5103 50.5658 93 49.5 93C48.4342 93 47.4427 93.5103 46.8765 94.3498L31.4078 117.35C30.8122 118.237 30.7813 119.355 31.3258 120.268C31.8703 121.181 32.9051 121.75 34.0312 121.75H37.125L22.176 141.718C21.5433 142.599 21.4845 143.734 22.0213 144.67C22.5612 145.604 23.61 146.188 24.75 146.188H26.2969L14.4293 164.875C13.8059 165.758 13.7517 166.888 14.2931 167.818C14.833 168.746 15.8787 169.188 17.0156 169.188H81.9844C83.1213 169.188 84.167 168.746 84.7069 167.818C85.2467 166.888 85.1941 165.758 84.5707 164.875Z" fill="#84BD5A"/>
<path d="M49.5 93C50.5658 93 51.5573 93.5103 52.1235 94.3498L67.5922 117.35C68.1878 118.237 68.2187 119.355 67.6742 120.268C67.1297 121.181 66.0949 121.75 64.9687 121.75H61.875L76.824 141.718C77.4567 142.599 77.5155 143.734 76.9787 144.67C76.4388 145.604 75.39 146.188 74.25 146.188H72.7031L84.5707 164.875C85.1941 165.758 85.2483 166.888 84.7069 167.818C84.167 168.746 83.1213 169.188 81.9844 169.188H64.9687L60.3281 149.062V146.188L54.1406 124.625V121.75L49.5 93Z" fill="#73AE44"/>
<path d="M49.5 93C48.4342 93 47.4427 93.5103 46.8765 94.3498L31.4078 117.35C30.8122 118.237 30.7813 119.355 31.3258 120.268C31.8703 121.181 32.9051 121.75 34.0312 121.75H37.125L22.176 141.718C21.5433 142.599 21.4845 143.734 22.0213 144.67C22.5612 145.604 23.61 146.188 24.75 146.188H26.2969L14.4293 164.875C13.8059 165.758 13.7517 166.888 14.2931 167.818C14.833 168.746 15.8787 169.188 17.0156 169.188H34.0312L38.6719 149.062V146.188L44.8594 124.625V121.75L49.5 93Z" fill="#90C660"/>
<path d="M54.1406 124.625H64.0282L61.875 121.75H54.1406V124.625Z" fill="#6FA14E"/>
<path d="M60.3281 149.062H74.697L72.7031 146.188H60.3281V149.062Z" fill="#6FA14E"/>
<path d="M54.1406 124.625H34.9718L37.125 121.75H54.1406V124.625Z" fill="#73AE44"/>
<path d="M60.3281 149.062H24.303L26.2969 146.188H60.3281V149.062Z" fill="#73AE44"/>
<path d="M49.5 169.188H41.7656V172.062H49.5V169.188Z" fill="#B86548"/>
<path d="M57.2344 169.188H49.5V172.062H57.2344V169.188Z" fill="#A2593E"/>
<path d="M44.8594 124.625H34.9718L37.125 121.75H44.8594V124.625Z" fill="#84BD5A"/>
<path d="M38.6719 149.062H24.303L26.2969 146.188H38.6719V149.062Z" fill="#84BD5A"/>
<g clip-path="url(#clip1_18_3074)">
<path d="M29.5938 176.328H17.4062V184.297H29.5938V176.328Z" fill="#7EA82D"/>
<path d="M29.5938 176.328H17.4062V177.266H29.5938V176.328Z" fill="#729C22"/>
<path d="M30.2969 173.516H16.7031V176.328H30.2969V173.516Z" fill="#7EA82D"/>
<path d="M24.9062 173.516H22.0938V184.297H24.9062V173.516Z" fill="#DD4A43"/>
<path d="M22.4823 171.481C22.3656 171.247 22.1861 171.051 21.9639 170.913C21.7418 170.776 21.4858 170.703 21.2247 170.703H19.2812C18.9083 170.703 18.5506 170.851 18.2869 171.115C18.0232 171.379 17.875 171.736 17.875 172.109C17.875 172.482 18.0232 172.84 18.2869 173.104C18.5506 173.367 18.9083 173.516 19.2812 173.516H23.5L22.4823 171.481Z" fill="#DD4A43"/>
<path d="M23.5 173.516H21.1562C20.7833 173.516 20.4256 173.367 20.1619 173.104C19.8982 172.84 19.75 172.482 19.75 172.109C19.75 171.736 19.8982 171.379 20.1619 171.115C20.4256 170.851 20.7833 170.703 21.1562 170.703H21.2247C21.4858 170.703 21.7418 170.776 21.9639 170.913C22.1861 171.051 22.3656 171.247 22.4823 171.481L23.5 173.516Z" fill="#B0342E"/>
<path d="M24.5177 171.481C24.6344 171.247 24.8139 171.051 25.0361 170.913C25.2582 170.776 25.5142 170.703 25.7753 170.703H27.7188C28.0917 170.703 28.4494 170.851 28.7131 171.115C28.9768 171.379 29.125 171.736 29.125 172.109C29.125 172.482 28.9768 172.84 28.7131 173.104C28.4494 173.367 28.0917 173.516 27.7188 173.516H23.5L24.5177 171.481Z" fill="#DD4A43"/>
<path d="M23.5 173.516H25.8438C26.2167 173.516 26.5744 173.367 26.8381 173.104C27.1018 172.84 27.25 172.482 27.25 172.109C27.25 171.736 27.1018 171.379 26.8381 171.115C26.5744 170.851 26.2167 170.703 25.8438 170.703H25.7753C25.5142 170.703 25.2582 170.776 25.0361 170.913C24.8139 171.051 24.6344 171.247 24.5177 171.481L23.5 173.516Z" fill="#B0342E"/>
<path d="M24.9062 178.438V173.516H22.0938V178.672L23.5 175.156L24.9062 178.438Z" fill="#D13E37"/>
<path d="M20.9219 179.844L19.9844 178.672L18.3438 179.141L20.6875 173.516H23.5L20.9219 179.844Z" fill="#DD4A43"/>
<path d="M26.0781 179.844L27.0156 178.672L28.6562 179.141L26.3125 173.516H23.5L26.0781 179.844Z" fill="#DD4A43"/>
<path d="M20.5852 175.542L19.7587 177.646L20.195 177.817L21.0215 175.714L20.5852 175.542Z" fill="#E66B65"/>
<path d="M20.9375 174.603L20.7572 175.072L21.1948 175.24L21.375 174.772L20.9375 174.603Z" fill="#E66B65"/>
<path d="M18.5781 181.484H18.1094V183.594H18.5781V181.484Z" fill="#95C43B"/>
<path d="M18.5781 180.547H18.1094V181.016H18.5781V180.547Z" fill="#95C43B"/>
</g>
</g>
<g clip-path="url(#clip2_18_3074)">
<path d="M118 170.687H114C112.9 170.687 112 171.684 112 172.906V182.781C112 184.002 112.9 185 114 185H118V170.687Z" fill="#C56C4D"/>
<path d="M120 170.687H117V185H120C121.1 185 122 184.002 122 182.781V172.906C122 171.684 121.1 170.687 120 170.687Z" fill="#B36345"/>
<path d="M139.672 169.469L132 155.047H133C133.007 155.048 133.015 155.047 133.02 155.047C134.125 155.047 135.02 154.053 135.02 152.828C135.02 152.269 134.834 151.76 134.528 151.37L125 136.188H127C127.007 136.188 127.015 136.188 127.02 136.188C128.125 136.188 129.02 135.194 129.02 133.969C129.02 133.434 128.849 132.941 128.564 132.559L118.696 115.042C118.33 114.394 117.689 114 117 114C116.311 114 115.67 114.394 115.304 115.042L105.304 132.792C104.919 133.476 104.899 134.339 105.251 135.044C105.603 135.748 106.272 136.188 107 136.188H109L99.336 151.598C98.927 152.278 98.889 153.153 99.236 153.875C99.585 154.596 100.263 155.047 101 155.047H102L94.328 169.469C93.925 170.15 93.89 171.022 94.24 171.74C94.589 172.456 95.265 172.797 96 172.797H138C138.735 172.797 139.411 172.456 139.76 171.74C140.109 171.022 140.075 170.15 139.672 169.469Z" fill="#84BD5A"/>
<path d="M117 114C117.689 114 118.33 114.394 118.696 115.042L128.696 132.792C129.081 133.476 129.101 134.339 128.749 135.044C128.397 135.748 127.728 136.188 127 136.188H125L134.664 151.598C135.073 152.278 135.111 153.153 134.764 153.875C134.415 154.596 133.737 155.047 133 155.047H132L139.672 169.469C140.075 170.15 140.11 171.022 139.76 171.74C139.411 172.456 138.735 172.797 138 172.797H127L124 157.266V155.047L120 138.406V136.188L117 114Z" fill="#73AE44"/>
<path d="M117 114C116.311 114 115.67 114.394 115.304 115.042L105.304 132.792C104.919 133.476 104.899 134.339 105.251 135.044C105.603 135.748 106.272 136.188 107 136.188H109L99.336 151.598C98.927 152.278 98.889 153.153 99.236 153.875C99.585 154.596 100.263 155.047 101 155.047H102L94.328 169.469C93.925 170.15 93.89 171.022 94.24 171.74C94.589 172.456 95.265 172.797 96 172.797H107L110 157.266V155.047L114 138.406V136.188L117 114Z" fill="#90C660"/>
<path d="M120 138.406H126.392L125 136.188H120V138.406Z" fill="#6FA14E"/>
<path d="M124 157.266H133.289L132 155.047H124V157.266Z" fill="#6FA14E"/>
<path d="M120 138.406H107.608L109 136.188H120V138.406Z" fill="#73AE44"/>
<path d="M124 157.266H100.711L102 155.047H124V157.266Z" fill="#73AE44"/>
<path d="M117 172.797H112V175.016H117V172.797Z" fill="#B86548"/>
<path d="M122 172.797H117V175.016H122V172.797Z" fill="#A2593E"/>
<path d="M114 138.406H107.608L109 136.188H114V138.406Z" fill="#84BD5A"/>
<path d="M110 157.266H100.711L102 155.047H110V157.266Z" fill="#84BD5A"/>
<g clip-path="url(#clip3_18_3074)">
<path d="M96.6875 177.328H85.3125V185.297H96.6875V177.328Z" fill="#7EA82D"/>
<path d="M96.6875 177.328H85.3125V178.266H96.6875V177.328Z" fill="#729C22"/>
<path d="M97.3438 174.516H84.6562V177.328H97.3438V174.516Z" fill="#7EA82D"/>
<path d="M92.3125 174.516H89.6875V185.297H92.3125V174.516Z" fill="#DD4A43"/>
<path d="M90.0502 172.481C89.9412 172.247 89.7737 172.051 89.5663 171.913C89.359 171.776 89.1201 171.703 88.8764 171.703H87.0625C86.7144 171.703 86.3806 171.851 86.1344 172.115C85.8883 172.379 85.75 172.736 85.75 173.109C85.75 173.482 85.8883 173.84 86.1344 174.104C86.3806 174.367 86.7144 174.516 87.0625 174.516H91L90.0502 172.481Z" fill="#DD4A43"/>
<path d="M91 174.516H88.8125C88.4644 174.516 88.1306 174.367 87.8844 174.104C87.6383 173.84 87.5 173.482 87.5 173.109C87.5 172.736 87.6383 172.379 87.8844 172.115C88.1306 171.851 88.4644 171.703 88.8125 171.703H88.8764C89.1201 171.703 89.359 171.776 89.5663 171.913C89.7737 172.051 89.9412 172.247 90.0502 172.481L91 174.516Z" fill="#B0342E"/>
<path d="M91.9498 172.481C92.0588 172.247 92.2263 172.051 92.4337 171.913C92.641 171.776 92.8799 171.703 93.1236 171.703H94.9375C95.2856 171.703 95.6194 171.851 95.8656 172.115C96.1117 172.379 96.25 172.736 96.25 173.109C96.25 173.482 96.1117 173.84 95.8656 174.104C95.6194 174.367 95.2856 174.516 94.9375 174.516H91L91.9498 172.481Z" fill="#DD4A43"/>
<path d="M91 174.516H93.1875C93.5356 174.516 93.8694 174.367 94.1156 174.104C94.3617 173.84 94.5 173.482 94.5 173.109C94.5 172.736 94.3617 172.379 94.1156 172.115C93.8694 171.851 93.5356 171.703 93.1875 171.703H93.1236C92.8799 171.703 92.641 171.776 92.4337 171.913C92.2263 172.051 92.0588 172.247 91.9498 172.481L91 174.516Z" fill="#B0342E"/>
<path d="M92.3125 179.438V174.516H89.6875V179.672L91 176.156L92.3125 179.438Z" fill="#D13E37"/>
<path d="M88.5938 180.844L87.7188 179.672L86.1875 180.141L88.375 174.516H91L88.5938 180.844Z" fill="#DD4A43"/>
<path d="M93.4062 180.844L94.2812 179.672L95.8125 180.141L93.625 174.516H91L93.4062 180.844Z" fill="#DD4A43"/>
<path d="M88.2795 176.542L87.5081 178.646L87.9153 178.817L88.6867 176.714L88.2795 176.542Z" fill="#E66B65"/>
<path d="M88.6083 175.603L88.4401 176.072L88.8485 176.24L89.0167 175.772L88.6083 175.603Z" fill="#E66B65"/>
<path d="M86.4062 182.484H85.9688V184.594H86.4062V182.484Z" fill="#95C43B"/>
<path d="M86.4062 181.547H85.9688V182.016H86.4062V181.547Z" fill="#95C43B"/>
</g>
</g>
<defs>
<clipPath id="clip0_18_3074">
<rect width="99" height="92" fill="white" transform="translate(0 93)"/>
</clipPath>
<clipPath id="clip1_18_3074">
<rect width="15" height="15" fill="white" transform="translate(16 170)"/>
</clipPath>
<clipPath id="clip2_18_3074">
<rect width="64" height="71" fill="white" transform="translate(85 114)"/>
</clipPath>
<clipPath id="clip3_18_3074">
<rect width="14" height="15" fill="white" transform="translate(84 171)"/>
</clipPath>
</defs>
</svg>
